# xmcd
#
# Track frame offsets:
# 150
# 19552
# 42350
# 75757
# 103260
# 117062
# 131722
# 147605
# 163365
# 188055
# 203282
# 218230
# 235580
# 257545
# 270617
#
# Disc length: 3866 seconds
#
#
# Revision: 0
# Processed by: cddbd v1.5.1PL0 Copyright (c) Steve Scherf et al.
# Submitted via: FreeRIP 2.90 
#
DISCID=c80f180f
DTITLE=Buena Vista Social Club - Chan Chan
DYEAR=1997
DGENRE=Cult
TTITLE0=Chan Chan
TTITLE1=De Caminho a La Vereda
TTITLE2=El Cuarto de Tula
TTITLE3=Pueblo Nuevo
TTITLE4=Dos Gardenias
TTITLE5=Y Tu Que Has Hecho?
TTITLE6=Veinte Años
TTITLE7=El Carretero
TTITLE8=Candela
TTITLE9=Amor de Loca Juventud
TTITLE10=Orgullecida
TTITLE11=Murmullo
TTITLE12=Buena Vista Social Club
TTITLE13=La Bayamesa
TTITLE14=Chan Chan
EXTD=
EXTT0=
EXTT1=
EXTT2=
EXTT3=
EXTT4=
EXTT5=
EXTT6=
EXTT7=
EXTT8=
EXTT9=
EXTT10=
EXTT11=
EXTT12=
EXTT13=
EXTT14=
PLAYORDER=
